<svg width="89.999634" height="28.000000" viewBox="0 0 89.9996 28" fill="none" xmlns="http://www.w3.org/2000/svg" xmlns:xlink="http://www.w3.org/1999/xlink">
	<desc>
			Created with Pixso.
	</desc>
	<defs/>
	<path id="Logo" d="M0 0.96875L0 21.4531C0 21.7239 0.0908203 21.9504 0.272339 22.1328C0.453857 22.3152 0.679443 22.4062 0.949097 22.4062L4.43445 22.4062C4.70422 22.4062 4.92981 22.3152 5.11133 22.1328C5.29285 21.9504 5.38354 21.7239 5.38354 21.4531L5.38354 12.0562C6.86694 10.5664 8.25696 9.23438 9.55359 9.23438C11.5348 9.23438 12.5254 9.99487 12.5254 12.4844L12.5254 21.4531C12.5254 21.7239 12.6162 21.9504 12.7977 22.1328C12.9792 22.3152 13.2048 22.4062 13.4746 22.4062L16.9443 22.4062C17.2244 22.4062 17.4552 22.3152 17.6367 22.1328C17.8182 21.9504 17.9091 21.7239 17.9091 21.4531L17.9091 12.4844C17.9091 9.94263 17.2762 8.05469 16.0107 6.82031C14.7452 5.58594 13.1038 4.96875 11.0862 4.96875C9.0686 4.96875 7.16772 5.72388 5.38354 7.23438L5.38354 0.96875C5.38354 0.6875 5.29285 0.455811 5.11133 0.273438C4.92981 0.0910645 4.70422 0 4.43445 0L0.949097 0C0.679443 0 0.453857 0.0910645 0.272339 0.273438C0.0908203 0.455811 0 0.6875 0 0.96875ZM23.3053 20.4375C21.7078 18.9165 20.9091 16.7266 20.9091 13.8672C20.9091 11.0078 21.713 8.80981 23.3208 7.27344C24.9286 5.73682 27.1588 4.96875 30.0114 4.96875C32.864 4.96875 35.089 5.71606 36.6864 7.21094C38.2839 8.70557 39.0826 10.8489 39.0826 13.6406L39.0826 14.5312C39.0826 14.8125 38.9918 15.0442 38.8103 15.2266C38.6288 15.4087 38.3979 15.5 38.1179 15.5L26.4016 15.5C26.5054 16.7812 26.871 17.7134 27.4985 18.2969C28.1261 18.8801 29.1296 19.1719 30.5093 19.1719C31.8889 19.1719 32.8329 18.8594 33.3412 18.2344C33.8495 17.6094 34.8232 17.7048 36.3254 17.9155C37.8278 18.1262 38.1665 18.9209 38.1179 19.1719C37.6414 21.6328 35.1448 22.7283 29.9958 22.7188C27.1329 22.7188 24.9027 21.9583 23.3053 20.4375ZM60.0906 17.2188C60.0906 18.9688 60.7751 20.323 62.1444 21.2812C63.524 22.2395 65.2848 22.7214 67.4269 22.7266C69.5688 22.7317 71.4594 22.1458 73.0983 20.9688L73.0983 21.4531C73.0983 21.7239 73.1865 21.9504 73.3628 22.1328C73.5392 22.3152 73.7673 22.4062 74.0475 22.4062L77.0504 22.4062C77.3306 22.4062 77.5587 22.3176 77.7351 22.1406C77.9114 21.9636 77.9995 21.7344 77.9995 21.4531L77.9995 11.7812C77.9995 9.45825 77.2527 7.74219 75.759 6.63281C74.2653 5.52344 72.2841 4.96875 69.8152 4.96875C65.0151 4.96875 62.2528 6.04639 61.5284 8.20166C61.3997 8.58472 61.493 9.3208 62.936 9.59888C64.379 9.87695 65.9954 10.0911 66.5088 9.46094L66.6166 9.33911C67.1429 8.79004 67.9991 8.51562 69.1851 8.51562C70.4558 8.51562 71.3452 8.75513 71.8535 9.23438C72.3618 9.71362 72.616 10.5625 72.616 11.7812L67.4657 11.7812C65.2977 11.7812 63.5266 12.25 62.1522 13.1875C60.7777 14.125 60.0906 15.4688 60.0906 17.2188ZM45.7758 24.0312L47.8141 24.2969C49.0522 24.2969 49.9744 23.5244 50.5807 21.9792C50.5916 21.9514 50.5029 21.937 50.3386 21.9102C49.7118 21.8083 47.9838 21.5271 46.476 19.6382C44.5728 17.2542 44.454 16.4819 43.6034 13.7527L41.285 6.20581C41.2539 6.12256 41.2384 6.02612 41.2384 5.91675C41.2384 5.80737 41.3032 5.67456 41.4329 5.51831C41.5625 5.36206 41.757 5.27881 42.0164 5.26831L45.0757 5.28125C45.3765 5.28125 45.6643 5.38281 45.9392 5.58594C46.2141 5.78906 46.3929 6.04175 46.476 6.34375L48.5143 12.9688C49.0226 14.5938 49.5386 15.7188 50.0625 16.3438C50.5863 16.9688 51.2061 17.2812 51.9219 17.2812L55.0182 6.34375C55.1012 6.04175 55.2645 5.78906 55.5083 5.58594C55.7521 5.38281 56.0244 5.28125 56.3252 5.28125L59.6083 5.28125C59.8676 5.28125 60.0594 5.3645 60.184 5.53125C60.3085 5.698 60.3706 5.83594 60.3706 5.94531C60.3706 6.05469 60.3602 6.14575 60.3395 6.21875L56.2629 20.8125C55.5369 23.3958 54.637 25.2395 53.5634 26.3438C52.4897 27.448 51.1075 28 49.4167 28L48.7668 27.9966C47.4159 27.9822 46.4371 27.9209 45.8303 27.8125C45.1301 27.6875 44.6918 27.5339 44.5155 27.3516C44.3391 27.1692 44.251 26.9583 44.251 26.7188L44.251 25C44.251 24.7188 44.3391 24.4871 44.5155 24.3047C44.6918 24.1223 44.92 24.0312 45.2001 24.0312L45.7758 24.0312ZM85.9996 14C88.2087 14 89.9996 12.2092 89.9996 10C89.9996 7.79077 88.2087 6 85.9996 6C83.7905 6 81.9996 7.79077 81.9996 10C81.9996 12.2092 83.7905 14 85.9996 14ZM33.6057 12.2031L26.3705 12.2031C26.495 9.74463 27.7059 8.51562 30.0037 8.51562C32.3013 8.51562 33.502 9.74463 33.6057 12.2031ZM67.8392 15.3281L72.616 15.3281L72.616 17.7656C71.1326 18.7031 69.5923 19.1719 67.9948 19.1719C67.196 19.1719 66.5789 18.9895 66.1432 18.625C65.7075 18.2605 65.4897 17.7969 65.4897 17.2344C65.4897 16.6719 65.6997 16.2136 66.1199 15.8594C66.5399 15.5051 67.113 15.3281 67.8392 15.3281Z" clip-rule="evenodd" fill="#FFFFFF" fill-opacity="1.000000" fill-rule="evenodd"/>
</svg>
