<svg width="13.992188" height="13.640625" viewBox="0 0 13.9922 13.6406" fill="none" xmlns="http://www.w3.org/2000/svg" xmlns:xlink="http://www.w3.org/1999/xlink">
	<desc>
			Created with Pixso.
	</desc>
	<defs/>
	<path id="Icon" d="M5.9375 0.898438C5.625 1.21094 5.65625 1.67969 5.9375 1.99219L9.71875 5.55469L0.75 5.55469C0.3125 5.55469 0 5.89844 0 6.30469L0 7.30469C0 7.74219 0.3125 8.05469 0.75 8.05469L9.71875 8.05469L5.9375 11.6484C5.65625 11.9609 5.65625 12.4297 5.9375 12.7422L6.625 13.4297C6.9375 13.7109 7.40625 13.7109 7.6875 13.4297L13.7812 7.33594C14.0625 7.05469 14.0625 6.58594 13.7812 6.27344L7.6875 0.210938C7.40625 -0.0703125 6.9375 -0.0703125 6.625 0.210938L5.9375 0.898438Z" fill="#FFFFFF" fill-opacity="1.000000" fill-rule="evenodd"/>
</svg>
