<svg width="14.015625" height="13.640625" viewBox="0 0 14.0156 13.6406" fill="none" xmlns="http://www.w3.org/2000/svg" xmlns:xlink="http://www.w3.org/1999/xlink">
	<desc>
			Created with Pixso.
	</desc>
	<defs/>
	<path id="Icon" d="M8.04688 12.7422C8.35938 12.4297 8.32812 11.9609 8.04688 11.6484L4.26562 8.05469L13.2656 8.05469C13.6719 8.05469 14.0156 7.74219 14.0156 7.30469L14.0156 6.30469C14.0156 5.89844 13.6719 5.55469 13.2656 5.55469L4.26562 5.55469L8.04688 1.99219C8.32812 1.67969 8.35938 1.21094 8.04688 0.898438L7.35938 0.210938C7.07812 -0.0703125 6.57812 -0.0703125 6.29688 0.210938L0.234375 6.30469C-0.078125 6.58594 -0.078125 7.05469 0.234375 7.33594L6.29688 13.4297C6.57812 13.7109 7.04688 13.7109 7.35938 13.4297L8.04688 12.7422Z" fill="#FFFFFF" fill-opacity="1.000000" fill-rule="evenodd"/>
</svg>
