<svg width="6.666656" height="4.973999" viewBox="0 0 6.66666 4.974" fill="none" xmlns="http://www.w3.org/2000/svg" xmlns:xlink="http://www.w3.org/1999/xlink">
	<desc>
			Created with Pixso.
	</desc>
	<defs/>
	<path id="Icon" d="M2.26562 4.86975L0.091156 2.70837C0.0303955 2.64758 0 2.56946 0 2.474C0 2.37842 0.0303955 2.30029 0.091156 2.23962L0.572906 1.77087C0.633667 1.70142 0.709625 1.66663 0.800781 1.66663C0.891937 1.66663 0.972229 1.70142 1.04166 1.77087L2.5 3.22913L5.625 0.104126C5.69443 0.034668 5.77472 0 5.86588 0C5.95703 0 6.03296 0.034668 6.09375 0.104126L6.5755 0.572876C6.63626 0.633667 6.66666 0.711792 6.66666 0.807251C6.66666 0.902832 6.63626 0.980957 6.5755 1.04163L2.73438 4.86975C2.67361 4.93921 2.59549 4.974 2.5 4.974C2.40451 4.974 2.32639 4.93921 2.26562 4.86975Z" fill="#36B37E" fill-opacity="1.000000" fill-rule="nonzero"/>
</svg>
