<svg width="90.000488" height="28.000000" viewBox="0 0 90.0005 28" fill="none" xmlns="http://www.w3.org/2000/svg" xmlns:xlink="http://www.w3.org/1999/xlink">
	<desc>
			Created with Pixso.
	</desc>
	<defs/>
	<path id="Logo" d="M0 0.96875L0 21.4531C0 21.7239 0.0908203 21.9504 0.272339 22.1328C0.453857 22.3152 0.679443 22.4062 0.949097 22.4062L4.43445 22.4062C4.70422 22.4062 4.92981 22.3152 5.11133 22.1328C5.29285 21.9504 5.38354 21.7239 5.38354 21.4531L5.38354 12.0562C6.86694 10.5664 8.25696 9.23438 9.55359 9.23438C11.5348 9.23438 12.5254 9.99487 12.5254 12.4844L12.5254 21.4531C12.5254 21.7239 12.6162 21.9504 12.7977 22.1328C12.9792 22.3152 13.2048 22.4062 13.4746 22.4062L16.9443 22.4062C17.2244 22.4062 17.4552 22.3152 17.6367 22.1328C17.8182 21.9504 17.9091 21.7239 17.9091 21.4531L17.9091 12.4844C17.9091 9.94263 17.2762 8.05469 16.0107 6.82031C14.7452 5.58594 13.1038 4.96875 11.0862 4.96875C9.0686 4.96875 7.16772 5.72388 5.38354 7.23438L5.38354 0.96875C5.38354 0.6875 5.29285 0.455811 5.11133 0.273438C4.92981 0.0910645 4.70422 0 4.43445 0L0.949097 0C0.679443 0 0.453857 0.0910645 0.272339 0.273438C0.0908203 0.455811 0 0.6875 0 0.96875ZM23.3053 20.4375C21.7079 18.9165 20.9092 16.7266 20.9092 13.8672C20.9092 11.0078 21.713 8.80981 23.3208 7.27344C24.9287 5.73682 27.1588 4.96875 30.0115 4.96875C32.864 4.96875 35.089 5.71606 36.6865 7.21094C38.2839 8.70557 39.0826 10.8489 39.0826 13.6406L39.0826 14.5312C39.0826 14.8125 38.9919 15.0442 38.8104 15.2266C38.6289 15.4087 38.3981 15.5 38.1179 15.5L26.4016 15.5C26.5054 16.7812 26.871 17.7134 27.4985 18.2969C28.1262 18.8801 29.1298 19.1719 30.5094 19.1719C31.889 19.1719 32.8329 18.8594 33.3412 18.2344C33.8495 17.6094 34.8234 17.7048 36.3256 17.9155C37.8278 18.1262 38.1666 18.9209 38.1179 19.1719C37.6415 21.6328 35.1448 22.7283 29.9958 22.7188C27.1329 22.7188 24.9027 21.9583 23.3053 20.4375ZM60.0912 17.2188C60.0912 18.9688 60.7758 20.323 62.145 21.2812C63.5247 22.2395 65.2855 22.7214 67.4275 22.7266C69.5696 22.7317 71.46 22.1458 73.099 20.9688L73.099 21.4531C73.099 21.7239 73.1871 21.9504 73.3635 22.1328C73.5398 22.3152 73.7681 22.4062 74.0481 22.4062L77.0511 22.4062C77.3312 22.4062 77.5593 22.3176 77.7357 22.1406C77.9121 21.9636 78.0002 21.7344 78.0002 21.4531L78.0002 11.7812C78.0002 9.45825 77.2534 7.74219 75.7596 6.63281C74.2659 5.52344 72.2847 4.96875 69.8159 4.96875C65.0157 4.96875 62.2535 6.04639 61.5291 8.20166C61.4004 8.58472 61.4938 9.3208 62.9368 9.59888C64.3796 9.87695 65.9961 10.0911 66.5095 9.46094L66.6172 9.33911C67.1436 8.79004 67.9998 8.51562 69.1858 8.51562C70.4564 8.51562 71.3459 8.75513 71.8542 9.23438C72.3625 9.71362 72.6166 10.5625 72.6166 11.7812L67.4664 11.7812C65.2985 11.7812 63.5272 12.25 62.1528 13.1875C60.7784 14.125 60.0912 15.4688 60.0912 17.2188ZM45.7766 24.0312L47.8149 24.2969C49.053 24.2969 49.9752 23.5242 50.5815 21.9792C50.5924 21.9512 50.5038 21.9368 50.3394 21.9102C49.7126 21.8081 47.9846 21.5269 46.4768 19.6382C44.5736 17.2539 44.4548 16.4817 43.6042 13.7524L41.2859 6.20557C41.2548 6.12231 41.2393 6.02588 41.2393 5.9165C41.2393 5.80713 41.3041 5.67432 41.4337 5.51807C41.5634 5.36182 41.7578 5.27856 42.0172 5.26807L45.0764 5.28125C45.3773 5.28125 45.6652 5.38281 45.9401 5.58594C46.2148 5.78906 46.3938 6.0415 46.4768 6.34375L48.5151 12.9688C49.0234 14.5938 49.5394 15.7188 50.0634 16.3438C50.5872 16.9688 51.2069 17.2812 51.9226 17.2812L55.019 6.34375C55.1021 6.0415 55.2654 5.78906 55.5092 5.58594C55.7529 5.38281 56.0251 5.28125 56.326 5.28125L59.6091 5.28125C59.8684 5.28125 60.0603 5.3645 60.1848 5.53125C60.3092 5.69775 60.3715 5.83594 60.3715 5.94531C60.3715 6.05469 60.3611 6.14575 60.3403 6.21875L56.2638 20.8125C55.5376 23.3958 54.6378 25.2395 53.5642 26.3438C52.4906 27.4478 51.1084 28 49.4176 28L48.7677 27.9966C47.4167 27.9822 46.4379 27.9207 45.8311 27.8125C45.1309 27.6875 44.6926 27.5337 44.5164 27.3516C44.34 27.1692 44.2518 26.9583 44.2518 26.7188L44.2518 25C44.2518 24.7188 44.34 24.4868 44.5164 24.3047C44.6926 24.1223 44.9209 24.0312 45.2009 24.0312L45.7766 24.0312ZM86.0004 14C88.2096 14 90.0004 12.2092 90.0004 10C90.0004 7.79077 88.2096 6 86.0004 6C83.7913 6 82.0004 7.79077 82.0004 10C82.0004 12.2092 83.7913 14 86.0004 14ZM33.6057 12.2031L26.3705 12.2031C26.495 9.74487 27.7061 8.51562 30.0037 8.51562C32.3013 8.51562 33.502 9.74487 33.6057 12.2031ZM67.8398 15.3281L72.6167 15.3281L72.6167 17.7656C71.1333 18.7031 69.5929 19.1719 67.9955 19.1719C67.1968 19.1719 66.5796 18.9895 66.1439 18.625C65.7083 18.2605 65.4904 17.7969 65.4904 17.2344C65.4904 16.6719 65.7004 16.2136 66.1206 15.8594C66.5406 15.5051 67.1138 15.3281 67.8398 15.3281Z" clip-rule="evenodd" fill="#FFFFFF" fill-opacity="1.000000" fill-rule="evenodd"/>
</svg>
